<svg width="16" height="16" viewBox="0 0 16 16" fill="none" xmlns="http://www.w3.org/2000/svg">
<rect width="16" height="16" fill="white"/>
<path d="M8.57074 4.98688C8.57074 4.98688 9.71307 2.2602 10.8576 1.30224C12.0022 0.344275 13.3719 1.79112 13.3719 1.79112C10.6252 -2.26435 8.57074 4.98688 8.57074 4.98688Z" fill="#CE004D"/>
<path d="M13.3719 1.79124C13.2202 0.820289 12.7637 0.0195184 11.6752 0.000369157C8.87885 -0.0495853 8.57074 4.98699 8.57074 4.98699C8.57074 4.98699 10.6252 -2.26423 13.3719 1.79124Z" fill="#FF6EAB"/>
<path d="M8.39244 4.83943C8.39244 4.83943 7.41252 2.49889 6.42939 1.67648C5.44626 0.85406 4.271 2.09559 4.271 2.09559C6.62891 -1.38457 8.39244 4.83943 8.39244 4.83943Z" fill="#B68208"/>
<path d="M4.271 2.09568C4.40128 1.2631 4.79308 0.574896 5.72754 0.558411C8.12802 0.516283 8.39244 4.83901 8.39244 4.83901C8.39244 4.83901 6.62891 -1.38449 4.271 2.09568Z" fill="#FEB200"/>
<path d="M7.69461 4.98604C7.69461 4.98604 5.92995 4.14914 5.31967 3.33388C4.70939 2.51862 5.67164 1.57715 5.67164 1.57715C2.98858 3.45011 7.69461 4.98604 7.69461 4.98604Z" fill="#B68208"/>
<path d="M5.67162 1.57715C5.03596 1.67073 4.50729 1.98045 4.48062 2.74275C4.41186 4.70313 7.6946 4.98538 7.6946 4.98538C7.6946 4.98538 2.98857 3.45011 5.67162 1.57715Z" fill="#FEB200"/>
<path d="M9.7807 4.72513C9.7807 4.72513 11.5454 3.8884 12.1556 3.07314C12.7659 2.25788 11.8035 1.31641 11.8035 1.31641C14.4866 3.18937 9.7807 4.72513 9.7807 4.72513Z" fill="#CE004D"/>
<path d="M11.8035 1.31641C12.4393 1.40999 12.9678 1.71954 12.9947 2.48201C13.0638 4.44372 9.7807 4.72513 9.7807 4.72513C9.7807 4.72513 14.4866 3.18937 11.8035 1.31641Z" fill="#FF6EAB"/>
<path d="M2.18408 4.07792C2.92545 4.06493 5.83244 5.14361 7.20818 4.98675C7.20818 4.98675 5.43067 4.70368 2.83581 3.54973C1.56914 2.98624 0.630024 3.65763 0.000305176 4.49337L1.08207 4.36016L1.05284 4.72449L1.04513 4.81974C1.20448 4.59511 1.62504 4.08774 2.18408 4.07792Z" fill="#FF6EAB"/>
<path d="M2.18409 4.07824C1.62505 4.08807 1.20417 4.59544 1.04513 4.8204L0.999512 5.39288C0.999512 5.39288 1.59196 4.44724 2.3971 4.49636C3.20224 4.54548 5.43036 5.24568 7.20787 4.98758C5.83244 5.14427 2.92546 4.06525 2.18409 4.07824Z" fill="#CE004D"/>
<path d="M14.3187 4.95139C13.7309 5.06795 11.2749 4.62802 10.2021 4.95139C10.2021 4.95139 11.6532 4.92058 13.8712 5.46575C14.9537 5.73218 15.6108 5.06295 15.9997 4.30848L15.1571 4.56907L15.1317 4.27501L15.125 4.19824C15.0284 4.39923 14.7618 4.8633 14.3187 4.95139Z" fill="#FF6EAB"/>
<path d="M14.3187 4.95155C14.7618 4.86347 15.0284 4.39939 15.125 4.19774L15.0851 3.73633C15.0851 3.73633 14.7404 4.5734 14.0932 4.65016C13.4459 4.72693 11.5809 4.49031 10.2021 4.95089C11.2749 4.62818 13.7309 5.06845 14.3187 4.95155Z" fill="#CE004D"/>
<path d="M13.7017 8.16553L13.7004 8.17388C13.687 8.17254 13.6752 8.1697 13.662 8.16837C13.6752 8.16703 13.6885 8.16553 13.7017 8.16553Z" fill="#E2165B"/>
<path d="M14.1354 5.97559L13.7981 7.67937C12.9187 7.56697 11.9573 7.58345 10.9654 7.75063C10.2298 7.87406 9.50926 8.07997 8.81653 8.36474V5.97559H14.1354Z" fill="#FF6EAB"/>
<path d="M13.7004 8.17358C13.6871 8.17225 13.6752 8.16942 13.662 8.16809H13.6607C12.7865 8.04187 11.8239 8.05286 10.8294 8.22021C10.1408 8.33533 9.46606 8.52647 8.8167 8.79035C8.67212 8.84797 8.52979 8.91108 8.39228 8.97535C8.24674 9.04396 8.10521 9.11523 7.96899 9.18932C6.14151 10.1818 5.03324 11.7074 5.27019 13.2055C5.29885 13.3899 5.34812 13.5702 5.41702 13.7428C5.2917 13.4961 5.20592 13.23 5.16304 12.9547C4.91581 11.3935 6.06762 9.80476 7.96915 8.76837V5.97559H2.65027L3.38922 9.70952L3.48947 10.2134L4.28674 14.2421L4.47324 15.1892L4.47453 15.1947H6.83083C7.46682 15.5777 8.24963 15.8554 9.12513 15.9993C8.6477 15.7828 8.2326 15.5114 7.90055 15.1947C7.43774 14.7533 7.13364 14.2214 7.03838 13.6211C7.02778 13.5567 7.01991 13.4909 7.01461 13.4265V13.4236C7.00931 13.357 7.00657 13.2904 7.00657 13.225C7.00657 13.1839 7.00802 13.1441 7.01059 13.1029C7.01332 13.0426 7.01718 12.9837 7.02376 12.9248C7.03456 12.8315 7.05066 12.7391 7.07196 12.6478C7.08256 12.5999 7.093 12.5533 7.10762 12.5053C7.11694 12.4697 7.12609 12.4354 7.13798 12.4011C7.14601 12.3738 7.15517 12.3463 7.16577 12.3188C7.17637 12.2855 7.18826 12.2522 7.20159 12.2202C7.21605 12.1791 7.23372 12.138 7.25172 12.0968C7.27822 12.0351 7.3073 11.9735 7.33766 11.9137C7.35485 11.878 7.37348 11.8437 7.39196 11.8081C7.44754 11.7082 7.50698 11.6093 7.57188 11.512C7.59822 11.4722 7.62473 11.4338 7.6538 11.3941C7.68288 11.3545 7.71453 11.3109 7.74633 11.2694C7.81637 11.1788 7.89091 11.0898 7.96979 11.002C8.1031 10.8536 8.24442 10.7131 8.39308 10.5812C8.52652 10.462 8.668 10.3469 8.8175 10.2359C8.87565 10.1919 8.93381 10.1494 8.99421 10.107C8.99568 10.1055 8.99752 10.1046 8.99951 10.1042C9.06162 10.0603 9.12508 10.0178 9.18987 9.97677C9.1979 9.97128 9.20593 9.96578 9.21509 9.96012C9.27196 9.92316 9.32882 9.88752 9.38826 9.85322C9.45846 9.80943 9.52979 9.7683 9.60385 9.72717C9.65541 9.69836 9.70826 9.66955 9.76128 9.64208C9.82071 9.60877 9.88288 9.57764 9.94505 9.5475C9.982 9.52968 10.0204 9.51053 10.0588 9.49271C10.101 9.47207 10.1434 9.45159 10.1873 9.43244C10.2732 9.39264 10.3619 9.35418 10.4504 9.31721C10.5351 9.28157 10.6197 9.24727 10.7075 9.21447C10.7128 9.21314 10.7179 9.21031 10.7235 9.20897C10.8148 9.17334 10.9075 9.14037 11.0013 9.10907C11.0885 9.07893 11.1759 9.05012 11.2631 9.02414L11.3306 9.00349C11.3981 8.98301 11.4654 8.9637 11.5343 8.94455C11.5647 8.93639 11.5963 8.92673 11.6281 8.9199C11.6903 8.90209 11.7524 8.8866 11.8146 8.87328C11.845 8.86362 11.8768 8.85663 11.9084 8.84997C11.968 8.83498 12.0287 8.82249 12.0896 8.81017C12.2218 8.78153 12.3568 8.75539 12.493 8.73207C12.8646 8.66856 13.2395 8.62736 13.6157 8.60869C14.3152 8.57305 14.987 8.61835 15.6059 8.73491C15.0479 8.46848 14.4038 8.27782 13.7004 8.17358Z" fill="#FEB200"/>
</svg>
