<svg width="23" height="14" viewBox="0 0 23 14" fill="none" xmlns="http://www.w3.org/2000/svg">
<path d="M22.4006 6.4275C20.1056 2.46 15.8306 0 11.2481 0C6.66563 0 2.39062 2.46 0.095625 6.4275C-0.031875 6.66 -0.031875 6.945 0.095625 7.1775C2.39062 11.1525 6.66563 13.62 11.2481 13.62C15.8306 13.62 20.1056 11.1525 22.4006 7.1775C22.5281 6.945 22.5281 6.66 22.4006 6.4275ZM11.2481 11.4975C8.66063 11.4975 6.56063 9.3975 6.56063 6.81C6.56063 4.2225 8.66063 2.1225 11.2481 2.1225C13.8356 2.1225 15.9356 4.2225 15.9356 6.81C15.9356 9.3975 13.8356 11.4975 11.2481 11.4975Z" fill="#FEB200"/>
<path d="M11.2481 9.99756C13.0085 9.99756 14.4356 8.57047 14.4356 6.81006C14.4356 5.04965 13.0085 3.62256 11.2481 3.62256C9.4877 3.62256 8.06061 5.04965 8.06061 6.81006C8.06061 8.57047 9.4877 9.99756 11.2481 9.99756Z" fill="#FEB200"/>
</svg>
