<svg width="29" height="28" viewBox="0 0 29 28" fill="none" xmlns="http://www.w3.org/2000/svg">
<path d="M13.211 16.201C15.7124 18.6985 18.1639 19.7114 19.0471 18.83L20.2605 17.6185C20.6615 17.2181 21.2055 16.9931 21.7727 16.9931C22.3399 16.9931 22.8838 17.2181 23.2849 17.6185L26.007 20.3362C26.408 20.7367 26.6333 21.2798 26.6333 21.8461C26.6333 22.4124 26.408 22.9555 26.007 23.356L23.8863 25.4733C21.8824 27.474 15.9555 24.8032 10.2755 19.1322C7.43497 16.2961 5.57369 13.6256 4.37034 11.1129C3.16698 8.60027 2.92194 6.54253 3.92417 5.54273L6.04482 3.42541C6.44591 3.025 6.98987 2.80005 7.55706 2.80005C8.12424 2.80005 8.6682 3.025 9.06929 3.42541L11.7913 6.14318C12.1924 6.54364 12.4177 7.08675 12.4177 7.65304C12.4177 8.21934 12.1924 8.76245 11.7913 9.1629L10.5779 10.3744C9.69507 11.2559 10.7096 13.7038 13.211 16.201Z" fill="#FEB200"/>
</svg>
