<svg width="34" height="34" viewBox="0 0 34 34" fill="none" xmlns="http://www.w3.org/2000/svg">
<path d="M16.9997 0.333984C7.81634 0.333984 0.333008 7.81732 0.333008 17.0007C0.333008 26.184 7.81634 33.6673 16.9997 33.6673C26.183 33.6673 33.6663 26.184 33.6663 17.0007C33.6663 7.81732 26.183 0.333984 16.9997 0.333984ZM19.983 22.0007C20.4663 22.484 20.4663 23.284 19.983 23.7673C19.733 24.0173 19.4163 24.134 19.0997 24.134C18.783 24.134 18.4663 24.0173 18.2163 23.7673L12.333 17.884C11.8497 17.4007 11.8497 16.6007 12.333 16.1173L18.2163 10.234C18.6997 9.75065 19.4997 9.75065 19.983 10.234C20.4663 10.7173 20.4663 11.5173 19.983 12.0007L14.983 17.0007L19.983 22.0007Z" fill="#FEB200"/>
</svg>
