<svg width="34" height="34" viewBox="0 0 34 34" fill="none" xmlns="http://www.w3.org/2000/svg">
<path d="M16.9997 0.333984C7.81634 0.333984 0.333008 7.81732 0.333008 17.0007C0.333008 26.184 7.81634 33.6673 16.9997 33.6673C26.183 33.6673 33.6663 26.184 33.6663 17.0007C33.6663 7.81732 26.183 0.333984 16.9997 0.333984ZM21.6497 17.884L15.7663 23.7673C15.5163 24.0173 15.1997 24.134 14.883 24.134C14.5663 24.134 14.2497 24.0173 13.9997 23.7673C13.5163 23.284 13.5163 22.484 13.9997 22.0007L18.9997 17.0007L13.9997 12.0007C13.5163 11.5173 13.5163 10.7173 13.9997 10.234C14.483 9.75065 15.283 9.75065 15.7663 10.234L21.6497 16.1173C22.1497 16.6007 22.1497 17.4007 21.6497 17.884Z" fill="#FEB200"/>
</svg>
