<svg width="60" height="60" viewBox="0 0 60 60" fill="none" xmlns="http://www.w3.org/2000/svg">
<path d="M31.9922 36.0242C31.7591 36.0242 31.5355 36.1168 31.3707 36.2817C31.2059 36.4465 31.1133 36.67 31.1133 36.9031V38.6181C31.1133 39.1036 31.5067 39.497 31.9922 39.497C32.2253 39.497 32.4488 39.4044 32.6137 39.2395C32.7785 39.0747 32.8711 38.8512 32.8711 38.6181V36.9031C32.8711 36.67 32.7785 36.4465 32.6137 36.2817C32.4488 36.1168 32.2253 36.0242 31.9922 36.0242ZM50.9439 36.0242C50.7108 36.0242 50.4872 36.1168 50.3224 36.2817C50.1576 36.4465 50.065 36.67 50.065 36.9031V38.6181C50.065 38.8512 50.1576 39.0747 50.3224 39.2395C50.4872 39.4044 50.7108 39.497 50.9439 39.497C51.177 39.497 51.4005 39.4044 51.5653 39.2395C51.7302 39.0747 51.8228 38.8512 51.8228 38.6181V36.9031C51.8228 36.67 51.7302 36.4465 51.5653 36.2817C51.4005 36.1168 51.177 36.0242 50.9439 36.0242ZM44.3851 37.837C44.2982 37.761 44.1972 37.7029 44.0878 37.666C43.9785 37.6291 43.8629 37.6141 43.7478 37.6218C43.6326 37.6295 43.5201 37.6599 43.4167 37.7111C43.3132 37.7623 43.2209 37.8334 43.1449 37.9203C42.7371 38.387 42.1259 38.6545 41.468 38.6545C40.8101 38.6545 40.1987 38.3868 39.7908 37.9202C39.7151 37.8324 39.6228 37.7603 39.5191 37.7083C39.4155 37.6563 39.3026 37.6253 39.1869 37.6171C39.0713 37.609 38.9551 37.6237 38.8452 37.6606C38.7353 37.6975 38.6337 37.7558 38.5464 37.8321C38.4591 37.9085 38.3878 38.0013 38.3365 38.1053C38.2853 38.2093 38.2551 38.3224 38.2478 38.4382C38.2404 38.5539 38.256 38.6699 38.2937 38.7796C38.3314 38.8892 38.3904 38.9903 38.4674 39.0771C39.2092 39.9259 40.3029 40.4124 41.468 40.4124C42.633 40.4124 43.7268 39.9259 44.4684 39.0772C44.5444 38.9903 44.6025 38.8893 44.6394 38.7799C44.6764 38.6706 44.6914 38.555 44.6836 38.4398C44.6759 38.3247 44.6456 38.2122 44.5943 38.1087C44.5431 38.0053 44.472 37.913 44.3851 37.837Z" fill="#252525"/>
<path d="M55.5361 10.7898H7.14691C4.68551 10.7898 2.68289 12.7923 2.68289 15.2538V21.7367C0.988594 22.7986 0 25.2081 0 28.5392C0 31.8703 0.988594 34.2798 2.68301 35.3417V44.7472C2.68301 47.208 4.68551 49.2101 7.14703 49.2101H55.5361C57.9975 49.2101 60 47.208 60 44.7472V15.2538C60 12.7923 57.9975 10.7898 55.5361 10.7898ZM12.967 12.5477H16.3382V24.0291H16.338L16.3296 24.0274C16.011 23.9559 15.681 23.9229 15.3546 23.9229H13.9509C13.6237 23.9229 13.2954 23.9584 12.9757 24.0275L12.967 24.0292V12.5477ZM4.44082 15.2538C4.44082 13.7617 5.65477 12.5476 7.14703 12.5476H11.2092V24.2161C11.1984 24.2071 11.1879 24.1987 11.1772 24.1897C9.35883 22.6615 6.98648 20.9362 4.47844 21.1491C4.46578 21.15 4.45312 21.1505 4.44082 21.1516V15.2538ZM1.75781 28.5392C1.75781 23.7212 3.75656 22.9876 4.64297 22.9004C6.61629 22.7064 8.39074 24.1751 9.81773 25.345C9.85488 25.3754 10.2798 25.7395 10.2827 25.7367C10.0471 26.0449 9.85135 26.3816 9.70008 26.7389C9.67734 26.7925 9.49477 27.3344 9.49477 27.3344C8.01328 26.9887 6.06762 26.6617 4.00898 26.6617C3.77588 26.6617 3.55233 26.7543 3.3875 26.9191C3.22268 27.0839 3.13008 27.3075 3.13008 27.5406C3.13008 27.7737 3.22268 27.9972 3.3875 28.1621C3.55233 28.3269 3.77588 28.4195 4.00898 28.4195C6.03797 28.4195 7.95984 28.7668 9.36996 29.1121C9.37301 29.1366 9.37711 29.1609 9.38062 29.1853C9.49043 29.9603 9.80332 30.7152 10.2826 31.3414C10.2279 31.3887 10.1728 31.4365 10.1183 31.4826C7.89633 33.3636 5.99133 34.2921 4.60945 34.1746C3.70711 34.0719 1.75781 33.2969 1.75781 28.5392ZM16.338 47.4521H12.9669V43.0083C12.9669 42.7752 12.8743 42.5516 12.7095 42.3868C12.5447 42.222 12.3211 42.1294 12.088 42.1294C11.8549 42.1294 11.6314 42.222 11.4665 42.3868C11.3017 42.5516 11.2091 42.7752 11.2091 43.0083V47.4521H7.14691C5.65477 47.4521 4.4407 46.2387 4.4407 44.7471V35.9298C4.44105 35.96 5.01234 35.9432 5.05582 35.9414C6.39 35.885 7.90348 35.2735 9.585 34.1108C10.1467 33.7225 10.6864 33.302 11.2091 32.8626V39.4926C11.2091 39.7257 11.3017 39.9493 11.4665 40.1141C11.6314 40.279 11.8549 40.3716 12.088 40.3716C12.3211 40.3716 12.5447 40.279 12.7095 40.1141C12.8743 39.9493 12.9669 39.7257 12.9669 39.4926V33.0494C12.97 33.0501 12.9731 33.0505 12.9763 33.0512C13.2899 33.1202 13.6126 33.1553 13.9337 33.1553C13.9395 33.1553 13.9451 33.1557 13.9508 33.1557H15.3545C15.3601 33.1557 15.3659 33.1553 15.3715 33.1553C15.6947 33.1541 16.0131 33.1144 16.3295 33.0511C16.3323 33.0505 16.3352 33.0501 16.338 33.0494V47.4521ZM16.2824 31.2373C15.9857 31.3426 15.6732 31.3968 15.3584 31.3977L15.3545 31.3978H13.9508L13.947 31.3977C12.4705 31.3946 11.1988 30.2062 11.0994 28.7327C11.0985 28.7192 11.0971 28.7059 11.0964 28.6922C11.0123 27.0914 12.3373 25.6806 13.9508 25.6806H15.3545C16.8993 25.6806 18.2132 26.9938 18.2132 28.5392C18.2132 29.7518 17.4203 30.8364 16.2824 31.2373ZM58.2422 44.7471C58.2422 46.2387 57.0282 47.4521 55.5361 47.4521L18.0959 47.452V32.8619C18.107 32.8713 18.1179 32.8799 18.129 32.8892C19.9123 34.3875 21.9887 35.9511 24.4297 35.9456C26.0812 35.9419 27.4936 34.9605 28.2636 33.5287C28.5094 33.0719 28.7126 32.5546 28.8729 31.9874H58.2422V44.7471ZM25.2964 26.6616C23.2377 26.6616 21.2919 26.9887 19.8105 27.3343C19.7555 27.1316 19.687 26.9327 19.6055 26.739C19.4543 26.3818 19.2586 26.0451 19.023 25.7369C21.2536 23.8159 23.1851 22.8313 24.591 22.8944C27.0056 23.0031 27.4934 26.3202 27.5426 28.1576C27.5966 30.1725 27.2763 34.188 24.4559 34.188C24.379 34.1883 24.3025 34.1857 24.2263 34.1807C23.2978 34.1201 22.4208 33.7031 21.6258 33.244C21.3909 33.1084 18.9369 31.4537 19.0227 31.3417C19.2583 31.0336 19.454 30.697 19.6051 30.3398C19.7614 29.9705 19.8689 29.5823 19.9248 29.1852C19.9283 29.1608 19.9324 29.1364 19.9355 29.1119C21.3452 28.7667 23.2673 28.4194 25.2964 28.4194C25.5295 28.4194 25.7531 28.3268 25.9179 28.1619C26.0828 27.9971 26.1754 27.7736 26.1754 27.5405C26.1754 27.3074 26.0828 27.0838 25.9179 26.919C25.7531 26.7542 25.5295 26.6616 25.2964 26.6616ZM58.2422 25.1004H53.4471C53.214 25.1004 52.9905 25.193 52.8256 25.3578C52.6608 25.5226 52.5682 25.7462 52.5682 25.9793C52.5682 26.2124 52.6608 26.4359 52.8256 26.6008C52.9905 26.7656 53.214 26.8582 53.4471 26.8582H58.2422V30.2297H29.2118C29.2131 30.2188 29.2139 30.2076 29.2151 30.1966C29.2771 29.6467 29.3053 29.0926 29.3053 28.5392C29.3053 27.949 29.2737 27.3882 29.2132 26.8582H49.9314C50.1645 26.8582 50.388 26.7656 50.5528 26.6008C50.7177 26.4359 50.8103 26.2124 50.8103 25.9793C50.8103 25.7462 50.7177 25.5226 50.5528 25.3578C50.388 25.193 50.1645 25.1004 49.9314 25.1004H28.8763C28.3245 23.1303 27.2721 21.8416 25.8069 21.3484C25.2454 21.1594 24.6448 21.1017 24.0555 21.1493C22.5049 21.2763 20.7209 22.1312 18.7215 23.7064C18.5103 23.873 18.3017 24.043 18.096 24.2163V12.5477H55.5362C57.0282 12.5476 58.2422 13.7616 58.2422 15.2538V25.1004Z" fill="#252525"/>
</svg>
