<svg width="60" height="60" viewBox="0 0 60 60" fill="none" xmlns="http://www.w3.org/2000/svg">
<path d="M49.5364 19.1705C49.1344 18.7679 48.8138 18.291 48.5924 17.766C48.5594 17.1721 48.6428 16.5774 48.838 16.0157C49.6974 13.3715 48.9122 11.7402 46.3 10.7667C45.7518 10.5754 45.2461 10.2784 44.8113 9.89251C44.5299 9.37816 44.3519 8.81337 44.2872 8.23018C43.9158 5.48345 42.5333 4.3307 39.7468 4.58652C39.1623 4.65237 38.5706 4.60241 38.0053 4.43945C37.5396 4.1018 37.1434 3.67695 36.8384 3.1883C35.3219 0.889005 33.5897 0.402217 31.1827 1.86051C30.6743 2.18206 30.1072 2.39893 29.5145 2.49851C28.0433 2.32451 26.4226 0.620754 24.7275 1.07751C22.986 1.40479 22.2515 3.6088 21.0248 4.43945C19.6186 4.91174 17.4386 4.09455 16.1005 5.25145C14.682 6.30374 14.9781 8.61754 14.2198 9.89147C13.7849 10.2772 13.2792 10.5742 12.7311 10.7656C10.1591 11.7185 9.31516 13.3684 10.1921 16.0126C10.3879 16.5748 10.4713 17.1703 10.4376 17.765C9.90425 19.1539 7.93167 20.3512 8.00183 22.1378C7.93373 23.9192 9.89806 25.1269 10.4376 26.5085C10.4709 27.1032 10.3875 27.6986 10.1921 28.261C9.32341 30.8927 10.1405 32.5551 12.73 33.509C13.3094 33.6259 13.8289 33.9446 14.197 34.4086C14.5651 34.8727 14.758 35.4524 14.7418 36.0454C14.9471 37.5369 15.6476 39.3494 17.3623 39.5876L12.9178 55.1534C12.8651 55.3499 12.8708 55.5576 12.9342 55.7508C12.9976 55.9441 13.1159 56.1146 13.2746 56.2412C13.4333 56.3678 13.6254 56.445 13.8272 56.4634C14.0291 56.4817 14.2319 56.4404 14.4107 56.3445L19.1853 53.6827L21.8347 58.477C21.9356 58.6534 22.0858 58.7962 22.2667 58.8878C22.4475 58.9795 22.6511 59.016 22.8524 58.9929C23.0537 58.9698 23.2438 58.888 23.3994 58.7577C23.5549 58.6274 23.6691 58.4542 23.7278 58.2595L28.325 42.1707C28.6731 41.9243 29.0886 41.792 29.5145 41.792C29.9404 41.792 30.3559 41.9243 30.704 42.1707L35.3012 58.2606C35.36 58.4552 35.4743 58.6282 35.6299 58.7584C35.7855 58.8886 35.9757 58.9703 36.1769 58.9933C36.3782 59.0163 36.5818 58.9797 36.7626 58.888C36.9434 58.7962 37.0935 58.6534 37.1944 58.477L39.8437 53.6837L44.6204 56.3445C44.7991 56.4398 45.0017 56.4806 45.2032 56.4619C45.4047 56.4433 45.5963 56.3659 45.7547 56.2394C45.913 56.1129 46.0311 55.9428 46.0944 55.7499C46.1577 55.5569 46.1636 55.3496 46.1112 55.1534L41.6667 39.5886C43.3773 39.3463 44.084 37.54 44.2862 36.0465C44.3511 35.4633 44.5291 34.8986 44.8103 34.3841C45.8812 33.3619 48.1932 33.1392 48.8999 31.5121C49.7211 29.9461 48.449 27.9938 48.5914 26.5096C48.8135 25.9848 49.1344 25.5079 49.5364 25.1051C51.476 23.0803 51.4997 21.2119 49.5364 19.1705ZM22.431 55.2881C19.4442 50.0473 20.8484 50.4927 15.5878 53.3192L19.4803 39.685C20.024 39.5708 20.5901 39.6478 21.0838 39.9032C21.5775 40.1586 21.9687 40.5767 22.1916 41.0873C22.9963 42.2639 24.2839 43.6062 25.885 43.1971L22.431 55.2881ZM43.4422 53.3192L39.9448 51.3699C39.8263 51.3039 39.696 51.262 39.5613 51.2466C39.4266 51.2311 39.2902 51.2425 39.1599 51.28C39.0296 51.3175 38.9079 51.3804 38.8019 51.4652C38.6958 51.5499 38.6074 51.6548 38.5417 51.7739L36.5981 55.2881L33.145 43.2012C34.7441 43.5989 36.0337 42.267 36.8374 41.0884C37.6421 39.9025 38.125 39.5617 39.5497 39.686L43.4422 53.3192ZM47.9621 23.766C47.3261 24.4058 46.852 25.1892 46.5796 26.0508C46.4475 26.9682 46.5367 27.9042 46.8396 28.7799C47.0651 29.3628 47.1351 29.9947 47.0428 30.6131C46.8602 30.9922 46.1153 31.3246 45.4602 31.6177C44.5997 31.9202 43.8239 32.4252 43.1977 33.0905C42.6869 33.8538 42.366 34.729 42.262 35.6425C41.9422 37.5089 41.707 37.7316 39.8025 37.6187C38.8891 37.5181 37.965 37.6389 37.1077 37.9708C36.3273 38.4329 35.6683 39.0757 35.1857 39.8455C34.7524 40.4255 34.2613 41.0832 33.8445 41.1785C32.5652 41.1526 30.997 39.6197 29.5145 39.7057C28.0268 39.6145 26.4679 41.1671 25.1845 41.1785C24.7677 41.0832 24.2766 40.4255 23.8433 39.8455C23.4627 39.1379 22.891 38.5525 22.1939 38.1564C21.4967 37.7603 20.7025 37.5697 19.9023 37.6063C19.1389 37.5969 17.8389 37.7482 17.3871 37.4043C16.5885 36.4038 16.8114 34.1656 15.8302 33.0905C15.0049 31.8964 12.7703 31.6209 11.9862 30.611C11.7138 29.363 12.8662 27.4469 12.4504 26.0497C12.2276 24.6246 10.3015 23.3807 10.0652 22.1378C10.3076 20.8949 12.2276 19.6521 12.4494 18.2249C12.8683 16.8298 11.7087 14.9075 11.9872 13.6636C12.7775 12.6558 15.0049 12.3793 15.8313 11.1851C16.8114 10.111 16.5865 7.86561 17.3881 6.87028C17.9719 6.63933 18.6057 6.56577 19.2266 6.65692C20.1399 6.75744 21.064 6.63668 21.9213 6.30478C22.7021 5.84282 23.3615 5.20005 23.8444 4.43013C24.9359 2.90141 25.232 2.76262 26.8992 3.70098C27.6905 4.19354 28.5867 4.4913 29.5145 4.56995C30.4427 4.49134 31.3391 4.19359 32.1309 3.70098C33.7816 2.76883 34.0911 2.88276 35.1867 4.43013C35.6694 5.19985 36.3284 5.84259 37.1087 6.30478C37.9659 6.63723 38.8901 6.75801 39.8035 6.65692C40.4248 6.5644 41.0594 6.63836 41.643 6.87132C42.0012 7.39319 42.2152 8.00111 42.263 8.63307C42.3669 9.5467 42.6878 10.4219 43.1988 11.1851C43.8247 11.8509 44.6005 12.3563 45.4613 12.6589C47.1976 13.387 47.3771 13.6542 46.8396 15.4968C46.5378 16.3727 46.4483 17.3083 46.5786 18.2259C46.8518 19.087 47.3261 19.87 47.9621 20.5097C49.2465 21.939 49.261 22.3305 47.9621 23.766Z" fill="#252525"/>
<path d="M29.5145 8.3742C25.8797 8.37859 22.395 9.83009 19.8248 12.4103C17.2546 14.9906 15.8088 18.4889 15.8044 22.1379C16.5576 40.3976 42.4745 40.3934 43.2256 22.1379C43.2215 18.4885 41.7756 14.9898 39.2052 12.4093C36.6347 9.82881 33.1496 8.37832 29.5145 8.3742ZM29.5145 33.8311C26.4263 33.8278 23.4656 32.5948 21.2819 30.4026C19.0983 28.2104 17.87 25.2381 17.8668 22.1379C18.5064 6.62488 40.5246 6.63006 41.1622 22.1379C41.1589 25.2381 39.9307 28.2104 37.747 30.4026C35.5634 32.5948 32.6026 33.8278 29.5145 33.8311Z" fill="#252525"/>
<path d="M34.4593 17.6085L27.6234 24.4702L24.5696 21.4045C24.3749 21.2159 24.1142 21.1117 23.8437 21.1143C23.5732 21.1168 23.3145 21.2259 23.1234 21.4181C22.9322 21.6103 22.8239 21.8701 22.8218 22.1417C22.8196 22.4132 22.9238 22.6748 23.1119 22.87L26.894 26.6669C27.0875 26.8611 27.3498 26.9702 27.6234 26.9702C27.897 26.9702 28.1593 26.8611 28.3528 26.6669L35.9182 19.0731C36.1061 18.8777 36.2101 18.6161 36.2077 18.3445C36.2054 18.073 36.0969 17.8132 35.9056 17.6212C35.7143 17.4291 35.4555 17.3202 35.185 17.3178C34.9145 17.3155 34.6539 17.4199 34.4593 17.6085Z" fill="#252525"/>
</svg>
