<svg width="29" height="29" viewBox="0 0 29 29" fill="none" xmlns="http://www.w3.org/2000/svg">
<g clip-path="url(#clip0_46_2601)">
<path d="M14.5 0.5C8.90845 0.5 4.35944 5.04902 4.35944 10.6405C4.35944 17.5797 13.4342 27.7668 13.8206 28.1971C14.1835 28.6013 14.8171 28.6006 15.1794 28.1971C15.5657 27.7668 24.6405 17.5797 24.6405 10.6405C24.6404 5.04902 20.0914 0.5 14.5 0.5ZM14.5 15.7424C11.6867 15.7424 9.39807 13.4537 9.39807 10.6405C9.39807 7.82725 11.6868 5.53858 14.5 5.53858C17.3132 5.53858 19.6018 7.8273 19.6018 10.6405C19.6018 13.4538 17.3132 15.7424 14.5 15.7424Z" fill="#FEB200"/>
</g>
<defs>
<clipPath id="clip0_46_2601">
<rect width="28" height="28" fill="white" transform="translate(0.5 0.5)"/>
</clipPath>
</defs>
</svg>
