<svg width="29" height="28" viewBox="0 0 29 28" fill="none" xmlns="http://www.w3.org/2000/svg">
<g clip-path="url(#clip0_46_2606)">
<path d="M8.61509 13.5L-0.0957255 22.3332C-0.350633 21.8608 -0.500061 21.326 -0.500061 20.7466V6.2534C-0.500061 5.67402 -0.350633 5.13922 -0.0957255 4.66681L8.61509 13.5ZM29.0956 4.66681L20.3848 13.5L29.0956 22.3332C29.3505 21.8608 29.4999 21.326 29.4999 20.7466V6.2534C29.4999 5.68294 29.3593 5.13922 29.0956 4.66681ZM17.3962 16.5306C16.6227 17.3149 15.5943 17.7428 14.5043 17.7428C13.4144 17.7428 12.386 17.3149 11.6124 16.5306L9.23917 14.1239L0.440461 23.0463C1.0206 23.6346 1.82927 24 2.71705 24H26.2916C27.1794 24 27.9793 23.6346 28.5682 23.0463L19.7695 14.1329L17.3962 16.5306ZM26.2916 3H2.71705C1.82927 3 1.02939 3.36545 0.440461 3.95373L12.2277 15.9066C13.4847 17.1812 15.5152 17.1812 16.7721 15.9066L28.5594 3.95373C27.9793 3.35654 27.1794 3 26.2916 3Z" fill="#FEB200"/>
</g>
<defs>
<clipPath id="clip0_46_2606">
<rect width="28" height="28" fill="white" transform="translate(0.5)"/>
</clipPath>
</defs>
</svg>
