<svg width="60" height="60" viewBox="0 0 60 60" fill="none" xmlns="http://www.w3.org/2000/svg">
<path d="M41.3369 34.1574H10.4038L37.1905 17.126C37.2684 17.0765 37.3359 17.0121 37.3889 16.9365C37.442 16.8609 37.4796 16.7756 37.4997 16.6854C37.5197 16.5953 37.5218 16.502 37.5059 16.4111C37.4899 16.3201 37.4562 16.2332 37.4066 16.1552L34.7527 11.9813C34.1474 11.0316 33.1902 10.3608 32.091 10.1161C30.9918 9.87136 29.8404 10.0726 28.8894 10.6758L25.1201 13.0724L25.4187 11.6438C25.5364 11.1273 25.5508 10.5926 25.4613 10.0704C25.3717 9.54832 25.1798 9.04904 24.8967 8.60129C24.6136 8.15353 24.2448 7.76614 23.8115 7.46135C23.3782 7.15657 22.889 6.9404 22.3719 6.82528C21.8548 6.71015 21.32 6.69834 20.7984 6.79051C20.2767 6.88268 19.7784 7.07702 19.332 7.36236C18.8857 7.64771 18.5001 8.01844 18.1975 8.45324C17.8949 8.88805 17.6812 9.37837 17.5686 9.89603L15.6104 18.6914L9.05366 17.232C8.07585 17.014 7.05191 17.1689 6.18231 17.6663C5.31271 18.1637 4.66008 18.9678 4.35221 19.9211C4.04434 20.8745 4.10339 21.9084 4.5178 22.8204C4.93222 23.7325 5.67215 24.457 6.59273 24.8522L2.55468 27.4198C1.60507 28.025 0.934314 28.9822 0.689576 30.0814C0.444837 31.1806 0.6461 32.3319 1.24921 33.2829L3.90316 37.457C3.95269 37.5349 4.01709 37.6024 4.09268 37.6554C4.16827 37.7085 4.25357 37.7461 4.3437 37.7662C4.43384 37.7862 4.52705 37.7884 4.61801 37.7724C4.70897 37.7565 4.79589 37.7228 4.87382 37.6732L7.34413 36.1029V53.9023C7.3454 55.0284 7.79333 56.108 8.58964 56.9043C9.38595 57.7005 10.4656 58.1484 11.5917 58.1496H37.793C38.919 58.1483 39.9986 57.7005 40.7949 56.9042C41.5911 56.1079 42.039 55.0284 42.0403 53.9023V34.8605C42.0403 34.7681 42.0221 34.6767 41.9868 34.5914C41.9514 34.506 41.8996 34.4285 41.8343 34.3632C41.769 34.2979 41.6914 34.2461 41.6061 34.2108C41.5208 34.1755 41.4293 34.1573 41.3369 34.1574ZM29.644 11.8627C30.0975 11.5726 30.6245 11.4184 31.1628 11.4181C31.3724 11.4182 31.5813 11.4412 31.7858 11.4868C32.1504 11.567 32.4954 11.7187 32.8009 11.9331C33.1065 12.1475 33.3665 12.4203 33.5659 12.7358L35.8426 16.3165L24.7684 23.3578L20.9673 17.3796L29.644 11.8627ZM18.9412 10.2018C19.0931 9.52508 19.5076 8.93645 20.0935 8.56537C20.6795 8.19429 21.3888 8.07116 22.0655 8.22306C22.7422 8.37496 23.3308 8.78946 23.7019 9.37536C24.0729 9.96127 24.1961 10.6706 24.0442 11.3473L23.4669 14.1087L17.1778 18.1222L18.9412 10.2018ZM19.7803 18.1342L23.5814 24.1124L17.1642 28.1924L13.3632 22.2142L19.7803 18.1342ZM5.97316 22.5601C5.69564 22.1237 5.55377 21.6148 5.5655 21.0977C5.57723 20.5806 5.74203 20.0787 6.03905 19.6553C6.33607 19.2319 6.75198 18.9061 7.23418 18.719C7.71638 18.532 8.24321 18.4922 8.74804 18.6046L14.4299 19.8695L8.12261 23.8233L7.61144 23.7094C7.27594 23.6357 6.9584 23.4961 6.67719 23.2988C6.39598 23.1016 6.15669 22.8505 5.97316 22.5601ZM4.7128 36.1092L2.4362 32.5284C2.03277 31.8924 1.89812 31.1222 2.06179 30.387C2.22547 29.6517 2.67409 29.0114 3.30925 28.6065L12.1765 22.9688L15.9775 28.947L4.7128 36.1092ZM18.3479 56.7434H11.5917C10.8385 56.7425 10.1163 56.4429 9.58371 55.9103C9.05109 55.3777 8.75148 54.6555 8.75062 53.9023V35.5636H18.3483L18.3479 56.7434ZM27.2851 56.7434H19.7542V35.5636H27.2851V56.7434ZM40.6338 53.9023C40.633 54.6555 40.3334 55.3776 39.8008 55.9102C39.2682 56.4428 38.5462 56.7424 37.793 56.7434H28.6914V35.5636H40.6338V53.9023ZM49.1992 27.7701L49.5355 25.8089C49.5576 25.6797 49.5432 25.5468 49.4938 25.4253C49.4443 25.3038 49.3619 25.1986 49.2558 25.1215C49.1497 25.0444 49.0242 24.9985 48.8934 24.989C48.7626 24.9795 48.6317 25.0067 48.5156 25.0677L46.7545 25.9935L44.9933 25.0677C44.8772 25.0066 44.7463 24.9793 44.6154 24.9887C44.4846 24.9982 44.359 25.0441 44.2528 25.1212C44.1467 25.1983 44.0642 25.3036 44.0148 25.4251C43.9653 25.5467 43.9509 25.6796 43.9731 25.8089L44.3094 27.7701L42.8846 29.1587C42.7907 29.2503 42.7242 29.3663 42.6927 29.4937C42.6613 29.6211 42.6661 29.7548 42.7066 29.8796C42.7472 30.0044 42.8218 30.1153 42.9221 30.1999C43.0225 30.2845 43.1444 30.3393 43.2743 30.3581L45.243 30.6443L46.1236 32.4285C46.1816 32.5462 46.2715 32.6453 46.3829 32.7146C46.4943 32.7839 46.6229 32.8206 46.7542 32.8206C46.8854 32.8206 47.014 32.7839 47.1254 32.7146C47.2369 32.6453 47.3267 32.5462 47.3848 32.4285L48.2652 30.6443L50.2339 30.3581C50.3638 30.3393 50.4858 30.2845 50.5861 30.1999C50.6864 30.1153 50.7611 30.0044 50.8016 29.8796C50.8422 29.7548 50.847 29.6211 50.8155 29.4937C50.784 29.3663 50.7176 29.2503 50.6236 29.1587L49.1992 27.7701ZM47.6972 29.3052C47.5844 29.3216 47.4772 29.3652 47.385 29.4322C47.2927 29.4992 47.2182 29.5876 47.1677 29.6898L46.7542 30.5279L46.3405 29.6898C46.2901 29.5876 46.2155 29.4992 46.1233 29.4322C46.0311 29.3652 45.924 29.3216 45.8112 29.3052L44.8861 29.1708L45.5555 28.5184C45.6371 28.4388 45.6982 28.3406 45.7334 28.2322C45.7687 28.1238 45.777 28.0084 45.7577 27.896L45.5996 26.9747L46.427 27.4096C46.5279 27.4627 46.6402 27.4904 46.7542 27.4904C46.8682 27.4904 46.9805 27.4627 47.0814 27.4096L47.9086 26.9747L47.7506 27.896C47.7313 28.0084 47.7397 28.1237 47.7749 28.2322C47.8101 28.3406 47.8711 28.4388 47.9528 28.5184L48.6221 29.1708L47.6972 29.3052ZM57.286 18.082L55.3525 17.6121L54.6434 15.7532C54.5966 15.6306 54.5165 15.5235 54.4121 15.444C54.3077 15.3646 54.1831 15.3159 54.0524 15.3036C53.9218 15.2912 53.7903 15.3157 53.6729 15.3742C53.5554 15.4327 53.4567 15.5229 53.3878 15.6346L52.3436 17.3283L50.3564 17.4283C50.2254 17.4348 50.0988 17.478 49.991 17.5527C49.8832 17.6275 49.7985 17.7309 49.7464 17.8513C49.6943 17.9717 49.677 18.1043 49.6963 18.2341C49.7156 18.3638 49.7709 18.4856 49.8558 18.5856L51.1438 20.1021L50.625 22.0228C50.5908 22.1495 50.5927 22.2832 50.6304 22.4088C50.6682 22.5345 50.7404 22.647 50.8389 22.7338C50.9373 22.8205 51.058 22.878 51.1874 22.8997C51.3168 22.9214 51.4497 22.9065 51.571 22.8566L53.4109 22.1003L55.0781 23.1874C55.188 23.2591 55.3157 23.2986 55.4469 23.3015C55.578 23.3044 55.7074 23.2705 55.8203 23.2037C55.9332 23.1369 56.0252 23.0398 56.0858 22.9235C56.1464 22.8072 56.1733 22.6762 56.1634 22.5454L56.0128 20.5614L57.5612 19.3125C57.6633 19.2302 57.7403 19.1209 57.7836 18.9971C57.8268 18.8732 57.8346 18.7398 57.806 18.6118C57.7773 18.4838 57.7135 18.3663 57.6216 18.2727C57.5297 18.1791 57.4135 18.1131 57.286 18.082ZM54.842 19.6992C54.7533 19.7708 54.6833 19.8629 54.638 19.9675C54.5928 20.0721 54.5737 20.1862 54.5823 20.2998L54.6526 21.2318L53.8697 20.721C53.7742 20.6587 53.665 20.6206 53.5515 20.6099C53.4381 20.5992 53.3237 20.6162 53.2182 20.6596L52.3539 21.0149L52.5976 20.1126C52.6273 20.0025 52.6299 19.8869 52.605 19.7756C52.5801 19.6644 52.5285 19.5609 52.4548 19.474L51.8497 18.7616L52.7832 18.7147C52.8971 18.7091 53.0079 18.6758 53.106 18.6177C53.2041 18.5597 53.2867 18.4787 53.3466 18.3817L53.837 17.5861L54.17 18.4594C54.2107 18.5659 54.2766 18.6609 54.3621 18.7362C54.4476 18.8116 54.5502 18.865 54.6609 18.8919L55.5693 19.1127L54.842 19.6992ZM46.9453 6.65193L46.4263 8.57263C46.392 8.69929 46.3939 8.83302 46.4317 8.95867C46.4695 9.08433 46.5416 9.19691 46.6401 9.28367C46.7385 9.37044 46.8593 9.42793 46.9887 9.44964C47.1181 9.47135 47.251 9.45642 47.3723 9.40654L49.2122 8.65009L50.8787 9.73747C50.9886 9.80916 51.1163 9.84867 51.2475 9.85154C51.3787 9.8544 51.508 9.82051 51.6209 9.7537C51.7339 9.68689 51.8258 9.58981 51.8864 9.47346C51.9471 9.3571 51.9739 9.22611 51.964 9.09529L51.8134 7.1113L53.3621 5.86232C53.4642 5.77997 53.5413 5.67071 53.5845 5.54688C53.6278 5.42305 53.6355 5.28959 53.6069 5.16159C53.5783 5.03358 53.5144 4.91614 53.4225 4.82253C53.3307 4.72891 53.2144 4.66287 53.087 4.63185L51.1534 4.16204L50.4444 2.30298C50.3977 2.18038 50.3175 2.07331 50.2131 1.99388C50.1086 1.91444 49.9841 1.86582 49.8534 1.85351C49.7228 1.84119 49.5913 1.86568 49.4739 1.92419C49.3564 1.98271 49.2577 2.07292 49.1889 2.18462L48.1447 3.87822L46.1575 3.97806C46.0264 3.98463 45.8998 4.02774 45.792 4.1025C45.6842 4.17725 45.5995 4.28069 45.5474 4.4011C45.4953 4.52151 45.4779 4.65409 45.4972 4.78386C45.5166 4.91362 45.5718 5.0354 45.6567 5.1354L46.9453 6.65193ZM48.5849 5.26396C48.6987 5.25824 48.8095 5.22493 48.9076 5.16689C49.0057 5.10885 49.0882 5.02782 49.1481 4.93079L49.6386 4.13521L49.9717 5.00849C50.0123 5.115 50.0782 5.21003 50.1637 5.2854C50.2492 5.36077 50.3518 5.41422 50.4626 5.44115L51.3708 5.66181L50.6433 6.24845C50.5545 6.32 50.4845 6.41205 50.4393 6.51668C50.394 6.6213 50.3748 6.73537 50.3835 6.84904L50.4538 7.78115L49.6709 7.27033C49.5754 7.20805 49.4662 7.16992 49.3527 7.15923C49.2392 7.14853 49.1248 7.16558 49.0194 7.20892L48.155 7.56423L48.3988 6.66189C48.4285 6.55183 48.4311 6.43618 48.4062 6.32492C48.3813 6.21366 48.3297 6.11011 48.2559 6.02322L47.6509 5.31072L48.5849 5.26396Z" fill="#252525" stroke="#252525" stroke-width="0.3"/>
<path d="M34.189 27.8713C32.6016 28.8703 31.826 30.0809 31.7938 30.1319C31.6939 30.2894 31.6607 30.4801 31.7014 30.6621C31.7422 30.8441 31.8535 31.0024 32.011 31.1023C32.1685 31.2022 32.3592 31.2354 32.5412 31.1947C32.7232 31.1539 32.8815 31.0426 32.9814 30.8851C33.0868 30.721 35.6309 26.8755 41.1681 28.2452C41.3484 28.2881 41.5384 28.258 41.6966 28.1615C41.8549 28.0651 41.9687 27.91 42.0132 27.7301C42.0577 27.5502 42.0294 27.3599 41.9344 27.2008C41.8394 27.0416 41.6854 26.9264 41.5059 26.8802C38.0991 26.0373 35.6464 26.9538 34.189 27.8713ZM47.5313 20.425C47.7035 20.4964 47.8971 20.4966 48.0694 20.4253C48.2418 20.3541 48.3788 20.2173 48.4502 20.045C48.5217 19.8728 48.5219 19.6792 48.4506 19.5069C48.3794 19.3345 48.2426 19.1975 48.0703 19.126C43.0648 17.0487 39.4267 18.6043 37.2563 20.2754C35.8163 21.3952 34.6245 22.8017 33.7561 24.4058C33.6732 24.5728 33.66 24.766 33.7194 24.9427C33.7789 25.1195 33.9061 25.2654 34.0731 25.3483C34.2402 25.4312 34.4333 25.4444 34.6101 25.385C34.7868 25.3255 34.9327 25.1983 35.0156 25.0312C35.7905 23.6196 36.8447 22.3805 38.1141 21.3896C40.8431 19.2891 44.0115 18.9642 47.5313 20.425ZM39.6302 15.2161C39.5729 15.3935 39.5883 15.5865 39.6732 15.7525C39.758 15.9185 39.9054 16.044 40.0828 16.1014C41.0508 16.3867 42.0547 16.5317 43.0638 16.5322C44.2397 16.5322 45.5978 16.32 46.8156 15.5981C48.4093 14.6538 49.4312 13.045 49.8547 10.8169C49.8723 10.726 49.8718 10.6326 49.8532 10.5419C49.8347 10.4512 49.7983 10.3651 49.7464 10.2885C49.6945 10.2119 49.6279 10.1463 49.5506 10.0955C49.4732 10.0447 49.3866 10.0096 49.2957 9.99236C49.2048 9.97508 49.1113 9.97592 49.0207 9.99484C48.9301 10.0138 48.8442 10.0504 48.7678 10.1026C48.6913 10.1548 48.626 10.2216 48.5754 10.2991C48.5249 10.3766 48.4902 10.4634 48.4732 10.5544C48.1289 12.3662 47.332 13.6551 46.1047 14.3852C43.7702 15.7743 40.5656 14.7798 40.5149 14.7636C40.3376 14.7065 40.1448 14.722 39.979 14.8068C39.8131 14.8917 39.6877 15.0389 39.6302 15.2161ZM30.336 33.3835C30.5864 33.3836 30.8313 33.3093 31.0395 33.1702C31.2478 33.0311 31.4101 32.8333 31.506 32.6019C31.6019 32.3705 31.627 32.1159 31.5781 31.8702C31.5293 31.6246 31.4087 31.3989 31.2316 31.2218C31.0545 31.0447 30.8288 30.9241 30.5832 30.8752C30.3375 30.8264 30.0829 30.8514 29.8515 30.9473C29.6201 31.0431 29.4223 31.2054 29.2832 31.4137C29.144 31.6219 29.0698 31.8668 29.0698 32.1172C29.0702 32.4529 29.2037 32.7748 29.4411 33.0122C29.6784 33.2496 30.0003 33.3831 30.336 33.3835ZM30.336 31.9773C30.3637 31.9773 30.3908 31.9855 30.4138 32.0008C30.4369 32.0162 30.4548 32.0381 30.4655 32.0637C30.4761 32.0893 30.4789 32.1175 30.4735 32.1446C30.4681 32.1718 30.4547 32.1968 30.4351 32.2164C30.4155 32.236 30.3906 32.2493 30.3634 32.2547C30.3362 32.2601 30.308 32.2573 30.2825 32.2467C30.2569 32.2361 30.235 32.2181 30.2196 32.1951C30.2042 32.172 30.196 32.1449 30.1961 32.1172C30.1962 32.0802 30.211 32.0447 30.2372 32.0185C30.2634 31.9923 30.2989 31.9775 30.336 31.9773ZM40.2993 10.4148C40.5497 10.4148 40.7945 10.3405 41.0028 10.2014C41.211 10.0622 41.3734 9.86446 41.4692 9.63307C41.565 9.40168 41.5901 9.14707 41.5413 8.90142C41.4924 8.65578 41.3718 8.43014 41.1947 8.25304C41.0176 8.07594 40.792 7.95534 40.5463 7.90647C40.3007 7.85761 40.046 7.88269 39.8147 7.97854C39.5833 8.07438 39.3855 8.23669 39.2463 8.44494C39.1072 8.65318 39.0329 8.89801 39.0329 9.14847C39.0333 9.48421 39.1668 9.80609 39.4042 10.0435C39.6416 10.2809 39.9635 10.4144 40.2993 10.4148ZM40.2993 9.00855C40.327 9.00855 40.354 9.01676 40.3771 9.03216C40.4001 9.04755 40.4181 9.06943 40.4286 9.09502C40.4392 9.12062 40.442 9.14878 40.4366 9.17595C40.4312 9.20312 40.4178 9.22807 40.3982 9.24765C40.3786 9.26723 40.3537 9.28056 40.3265 9.28595C40.2993 9.29134 40.2712 9.28855 40.2456 9.27793C40.22 9.26731 40.1981 9.24935 40.1828 9.2263C40.1674 9.20326 40.1592 9.17617 40.1592 9.14847C40.1594 9.1114 40.1742 9.0759 40.2005 9.04969C40.2267 9.02349 40.2622 9.0087 40.2993 9.00855ZM58.1477 9.44917C57.8973 9.44917 57.6524 9.52344 57.4442 9.6626C57.2359 9.80175 57.0736 9.99953 56.9778 10.2309C56.8819 10.4623 56.8569 10.7169 56.9058 10.9626C56.9546 11.2082 57.0752 11.4339 57.2523 11.611C57.4295 11.7881 57.6551 11.9087 57.9008 11.9575C58.1464 12.0064 58.401 11.9813 58.6324 11.8854C58.8638 11.7895 59.0616 11.6272 59.2007 11.419C59.3398 11.2107 59.4141 10.9658 59.4141 10.7154C59.4137 10.3797 59.2802 10.0578 59.0427 9.82041C58.8053 9.58302 58.4835 9.44951 58.1477 9.44917ZM58.1477 10.8554C58.12 10.8554 58.093 10.8472 58.0699 10.8318C58.0469 10.8164 58.029 10.7946 58.0184 10.769C58.0078 10.7434 58.005 10.7152 58.0104 10.6881C58.0158 10.6609 58.0291 10.6359 58.0487 10.6164C58.0683 10.5968 58.0933 10.5834 58.1204 10.578C58.1476 10.5726 58.1757 10.5754 58.2013 10.586C58.2269 10.5966 58.2488 10.6146 58.2642 10.6376C58.2796 10.6606 58.2878 10.6877 58.2878 10.7154C58.2876 10.7525 58.2728 10.788 58.2466 10.8142C58.2204 10.8405 58.1848 10.8553 58.1477 10.8554ZM29.8177 26.2532C29.8177 26.0027 29.7434 25.7578 29.6042 25.5495C29.465 25.3413 29.2672 25.179 29.0358 25.0832C28.8043 24.9873 28.5497 24.9623 28.304 25.0112C28.0584 25.0601 27.8327 25.1808 27.6557 25.358C27.4786 25.5351 27.358 25.7608 27.3093 26.0065C27.2605 26.2522 27.2856 26.5069 27.3816 26.7382C27.4776 26.9696 27.64 27.1673 27.8483 27.3064C28.0566 27.4455 28.3015 27.5196 28.552 27.5195C28.8877 27.519 29.2094 27.3853 29.4466 27.148C29.6839 26.9106 29.8173 26.5888 29.8177 26.2532ZM28.552 26.3938C28.5244 26.3938 28.4973 26.3856 28.4743 26.3703C28.4512 26.3549 28.4333 26.3331 28.4226 26.3075C28.412 26.282 28.4092 26.2539 28.4145 26.2267C28.4199 26.1996 28.4331 26.1746 28.4526 26.155C28.4722 26.1353 28.4971 26.122 28.5242 26.1165C28.5513 26.111 28.5795 26.1137 28.6051 26.1242C28.6307 26.1347 28.6526 26.1525 28.6681 26.1755C28.6835 26.1985 28.6918 26.2255 28.692 26.2532C28.6918 26.2903 28.6769 26.3259 28.6506 26.3522C28.6243 26.3784 28.5886 26.3932 28.5514 26.3932L28.552 26.3938ZM56.0625 27.0483C55.812 27.0483 55.5672 27.1225 55.359 27.2617C55.1507 27.4008 54.9884 27.5986 54.8926 27.83C54.7967 28.0614 54.7716 28.316 54.8205 28.5617C54.8694 28.8073 54.99 29.0329 55.1671 29.21C55.3442 29.3871 55.5698 29.5077 55.8155 29.5566C56.0611 29.6055 56.3157 29.5804 56.5471 29.4845C56.7785 29.3887 56.9763 29.2264 57.1154 29.0181C57.2546 28.8099 57.3288 28.5651 57.3288 28.3146C57.3285 27.9789 57.1949 27.657 56.9575 27.4196C56.7201 27.1822 56.3982 27.0486 56.0625 27.0483ZM56.0625 28.4545C56.0348 28.4545 56.0078 28.4463 55.9848 28.4309C55.9618 28.4155 55.9439 28.3936 55.9333 28.3681C55.9227 28.3425 55.92 28.3144 55.9254 28.2872C55.9308 28.2601 55.9441 28.2352 55.9637 28.2156C55.9833 28.1961 56.0082 28.1827 56.0354 28.1774C56.0625 28.172 56.0906 28.1747 56.1162 28.1853C56.1418 28.1959 56.1636 28.2139 56.179 28.2369C56.1943 28.2599 56.2025 28.2869 56.2025 28.3146C56.2024 28.3517 56.1875 28.3872 56.1613 28.4134C56.1351 28.4396 56.0996 28.4544 56.0625 28.4545Z" fill="#252525" stroke="#252525" stroke-width="0.3"/>
</svg>
