<svg width="173" height="100" viewBox="0 0 173 100" fill="none" xmlns="http://www.w3.org/2000/svg">
<path d="M55.1744 31.1701C55.1744 31.1701 62.5285 14.1276 69.897 8.14013C77.2655 2.15264 86.0829 11.1958 86.0829 11.1958C68.4005 -14.1519 55.1744 31.1701 55.1744 31.1701Z" fill="#CE004D"/>
<path d="M86.0829 11.1957C85.1066 5.12701 82.1675 0.121995 75.1599 0.00230732C57.158 -0.309921 55.1744 31.1699 55.1744 31.1699C55.1744 31.1699 68.4005 -14.152 86.0829 11.1957Z" fill="#FF6EAB"/>
<path d="M54.0265 30.2486C54.0265 30.2486 47.718 15.6197 41.3888 10.4794C35.0597 5.33905 27.4936 13.0989 27.4936 13.0989C42.6733 -8.65293 54.0265 30.2486 54.0265 30.2486Z" fill="#B68208"/>
<path d="M27.4936 13.099C28.3323 7.89518 30.8547 3.59372 36.8705 3.49068C52.3242 3.22737 54.0265 30.2455 54.0265 30.2455C54.0265 30.2455 42.6733 -8.6529 27.4936 13.099Z" fill="#FEB200"/>
<path d="M49.534 31.1646C49.534 31.1646 38.1736 25.9337 34.2448 20.8382C30.3159 15.7426 36.5106 9.85815 36.5106 9.85815C19.2378 21.5646 49.534 31.1646 49.534 31.1646Z" fill="#B68208"/>
<path d="M36.5106 9.85815C32.4184 10.4431 29.0149 12.3789 28.8432 17.1435C28.4006 29.3963 49.534 31.1604 49.534 31.1604C49.534 31.1604 19.2378 21.5646 36.5106 9.85815Z" fill="#FEB200"/>
<path d="M62.9639 29.5327C62.9639 29.5327 74.3243 24.3029 78.2532 19.2073C82.182 14.1118 75.9863 8.22729 75.9863 8.22729C93.2591 19.9338 62.9639 29.5327 62.9639 29.5327Z" fill="#CE004D"/>
<path d="M75.9863 8.22729C80.0795 8.8122 83.482 10.747 83.6547 15.5126C84.0994 27.7738 62.9639 29.5327 62.9639 29.5327C62.9639 29.5327 93.2591 19.9338 75.9863 8.22729Z" fill="#FF6EAB"/>
<path d="M14.0586 25.4893C18.8313 25.4082 37.5458 32.1502 46.4025 31.1698C46.4025 31.1698 34.9593 29.4005 18.2543 22.1881C10.0998 18.6661 4.05398 22.8625 0 28.086L6.96416 27.2534L6.77593 29.5306L6.7263 30.1259C7.7522 28.7219 10.4597 25.5508 14.0586 25.4893Z" fill="#FF6EAB"/>
<path d="M14.0586 25.4895C10.4597 25.5509 7.75015 28.7221 6.72631 30.1282L6.4326 33.7063C6.4326 33.7063 10.2466 27.7958 15.4299 28.1028C20.6132 28.4099 34.9573 32.7863 46.4005 31.1731C37.5458 32.1524 18.8314 25.4083 14.0586 25.4895Z" fill="#CE004D"/>
<path d="M92.1784 30.9483C88.3943 31.6769 72.5828 28.9272 65.6765 30.9483C65.6765 30.9483 75.0183 30.7558 89.2971 34.1632C96.2665 35.8284 100.496 31.6456 103 26.9299L97.5757 28.5587L97.4123 26.7208L97.3689 26.241C96.7474 27.4972 95.0306 30.3978 92.1784 30.9483Z" fill="#FF6EAB"/>
<path d="M92.1784 30.9482C95.0306 30.3977 96.7474 27.4971 97.3689 26.2367L97.1124 23.3528C97.1124 23.3528 94.8931 28.5847 90.7264 29.0645C86.5597 29.5443 74.5529 28.0653 65.6765 30.9441C72.5828 28.9271 88.3943 31.6789 92.1784 30.9482Z" fill="#CE004D"/>
<path d="M88.2061 51.0359L88.1978 51.0881C88.1119 51.0797 88.0354 51.062 87.9506 51.0536C88.0354 51.0453 88.1213 51.0359 88.2061 51.0359Z" fill="#E2165B"/>
<path d="M90.9983 37.3489L88.8266 47.9979C83.1655 47.2954 76.9759 47.3984 70.5909 48.4434C65.855 49.2148 61.2164 50.5018 56.7567 52.2817V37.3489H90.9983Z" fill="#FF6EAB"/>
<path d="M88.1978 51.0869C88.112 51.0786 88.0354 51.0609 87.9506 51.0526H87.9424C82.3144 50.2637 76.1176 50.3324 69.715 51.3783C65.282 52.0979 60.9382 53.2925 56.7578 54.9419C55.827 55.302 54.9107 55.6964 54.0254 56.0982C53.0885 56.527 52.1774 56.9724 51.3004 57.4355C39.5356 63.6385 32.4008 73.1739 33.9262 82.5376C34.1107 83.6902 34.4279 84.8173 34.8714 85.8962C34.0647 84.3542 33.5125 82.6906 33.2364 80.9702C31.6448 71.2121 39.0599 61.2822 51.3014 54.8045V37.3489H17.0598L21.817 60.6869L22.4623 63.8362L27.595 89.0163L28.7957 94.9362L28.8039 94.9705H43.9732C48.0676 97.3643 53.1071 99.1003 58.7434 99.9995C55.6698 98.6465 52.9975 96.9501 50.8598 94.9705C47.8804 92.2115 45.9227 88.8873 45.3094 85.1354C45.2412 84.7326 45.1905 84.3215 45.1563 83.9187V83.901C45.1222 83.4847 45.1046 83.0684 45.1046 82.6594C45.1046 82.4023 45.1139 82.1536 45.1305 81.8965C45.1481 81.5198 45.1729 81.1513 45.2153 80.7829C45.2848 80.2003 45.3884 79.6224 45.5255 79.0521C45.5938 78.7524 45.661 78.461 45.7551 78.1612C45.8151 77.9385 45.8741 77.7241 45.9506 77.5097C46.0023 77.339 46.0612 77.1673 46.1295 76.9956C46.1978 76.7874 46.2743 76.5793 46.3601 76.3795C46.4532 76.1224 46.567 75.8653 46.6828 75.6082C46.8534 75.2221 47.0406 74.837 47.2361 74.4634C47.3467 74.2407 47.4667 74.0263 47.5856 73.8036C47.9435 73.1791 48.3261 72.5609 48.7439 71.9531C48.9135 71.7044 49.0842 71.4639 49.2713 71.2162C49.4585 70.9685 49.6623 70.6959 49.867 70.4367C50.3179 69.8705 50.7978 69.3137 51.3056 68.7652C52.1638 67.8374 53.0736 66.9594 54.0306 66.1352C54.8897 65.3901 55.8005 64.6706 56.7629 63.9767C57.1373 63.702 57.5117 63.4366 57.9005 63.1712C57.91 63.1621 57.9218 63.156 57.9346 63.1535C58.3345 62.8794 58.743 62.614 59.1601 62.3573C59.2119 62.323 59.2636 62.2886 59.3225 62.2532C59.6886 62.0222 60.0547 61.7994 60.4374 61.585C60.8893 61.3113 61.3485 61.0543 61.8252 60.7972C62.1572 60.6171 62.4974 60.4371 62.8387 60.2654C63.2214 60.0572 63.6216 59.8626 64.0218 59.6742C64.2597 59.5629 64.5068 59.4432 64.754 59.3318C65.026 59.2027 65.299 59.0747 65.5814 58.955C66.1346 58.7063 66.7055 58.4659 67.2753 58.2348C67.8203 58.0121 68.3654 57.7977 68.93 57.5927C68.9642 57.5844 68.9972 57.5667 69.0334 57.5584C69.6209 57.3356 70.2176 57.1296 70.8215 56.9339C71.3831 56.7455 71.9457 56.5655 72.5073 56.4031L72.9416 56.2741C73.376 56.146 73.8093 56.0253 74.2529 55.9056C74.4484 55.8546 74.6521 55.7943 74.8569 55.7516C75.2571 55.6402 75.6574 55.5434 76.0576 55.4602C76.253 55.3998 76.4578 55.3561 76.6615 55.3145C77.0452 55.2208 77.4361 55.1427 77.8281 55.0657C78.6792 54.8867 79.5479 54.7233 80.4249 54.5776C82.8174 54.1806 85.2307 53.9231 87.6528 53.8064C92.1556 53.5837 96.4805 53.8668 100.465 54.5953C96.8725 52.9301 92.7265 51.7384 88.1978 51.0869Z" fill="#FEB200"/>
<path d="M64.88 89.3C63.42 89.3 62.05 89.03 60.77 88.49C59.51 87.93 58.4 87.16 57.44 86.18C56.5 85.2 55.76 84.06 55.22 82.76C54.68 81.46 54.41 80.06 54.41 78.56C54.41 77.06 54.68 75.67 55.22 74.39C55.76 73.09 56.51 71.95 57.47 70.97C58.43 69.99 59.55 69.23 60.83 68.69C62.13 68.15 63.54 67.88 65.06 67.88C66.72 67.88 68.25 68.2 69.65 68.84C71.05 69.48 72.22 70.4 73.16 71.6L71.21 73.55C70.55 72.59 69.68 71.86 68.6 71.36C67.52 70.84 66.34 70.58 65.06 70.58C63.54 70.58 62.19 70.92 61.01 71.6C59.85 72.28 58.94 73.22 58.28 74.42C57.64 75.62 57.32 77 57.32 78.56C57.32 80.14 57.65 81.53 58.31 82.73C58.97 83.93 59.86 84.87 60.98 85.55C62.1 86.23 63.38 86.57 64.82 86.57C66.28 86.57 67.54 86.29 68.6 85.73C69.68 85.17 70.51 84.35 71.09 83.27C71.67 82.17 71.96 80.83 71.96 79.25L73.67 80.48H64.67V77.9H74.87V78.32C74.87 80.74 74.44 82.77 73.58 84.41C72.74 86.03 71.56 87.25 70.04 88.07C68.54 88.89 66.82 89.3 64.88 89.3ZM78.2131 89V74.75H80.9131V89H78.2131ZM79.5631 71.9C79.0631 71.9 78.6531 71.74 78.3331 71.42C78.0131 71.08 77.8531 70.66 77.8531 70.16C77.8531 69.68 78.0131 69.28 78.3331 68.96C78.6531 68.62 79.0631 68.45 79.5631 68.45C80.0631 68.45 80.4731 68.62 80.7931 68.96C81.1131 69.28 81.2731 69.68 81.2731 70.16C81.2731 70.66 81.1131 71.08 80.7931 71.42C80.4731 71.74 80.0631 71.9 79.5631 71.9ZM86.9321 89V72.62C86.9321 71.56 87.1621 70.64 87.6221 69.86C88.0821 69.06 88.7121 68.43 89.5121 67.97C90.3321 67.51 91.2821 67.28 92.3621 67.28C93.1821 67.28 93.8921 67.42 94.4921 67.7C95.0921 67.98 95.6421 68.39 96.1421 68.93L94.3721 70.67C94.1121 70.39 93.8221 70.18 93.5021 70.04C93.1821 69.88 92.7921 69.8 92.3321 69.8C91.4721 69.8 90.8021 70.05 90.3221 70.55C89.8621 71.05 89.6321 71.74 89.6321 72.62V89H86.9321ZM83.4221 77.21V74.75H94.1621V77.21H83.4221ZM98.2149 89V68.78H100.915V89H98.2149ZM94.7049 77.21V74.75H104.425V77.21H94.7049Z" fill="#FEB200"/>
<path d="M113.34 89.3C111.7 89.3 110.3 89 109.14 88.4C107.98 87.8 106.95 86.93 106.05 85.79L107.97 83.87C108.63 84.79 109.39 85.49 110.25 85.97C111.11 86.43 112.17 86.66 113.43 86.66C114.67 86.66 115.66 86.39 116.4 85.85C117.16 85.31 117.54 84.57 117.54 83.63C117.54 82.85 117.36 82.22 117 81.74C116.64 81.26 116.15 80.87 115.53 80.57C114.93 80.25 114.27 79.97 113.55 79.73C112.83 79.47 112.11 79.2 111.39 78.92C110.67 78.62 110.01 78.26 109.41 77.84C108.81 77.4 108.32 76.83 107.94 76.13C107.58 75.43 107.4 74.55 107.4 73.49C107.4 72.31 107.68 71.31 108.24 70.49C108.82 69.65 109.6 69.01 110.58 68.57C111.58 68.11 112.7 67.88 113.94 67.88C115.3 67.88 116.52 68.15 117.6 68.69C118.68 69.21 119.56 69.9 120.24 70.76L118.32 72.68C117.7 71.96 117.03 71.42 116.31 71.06C115.61 70.7 114.8 70.52 113.88 70.52C112.76 70.52 111.87 70.77 111.21 71.27C110.55 71.75 110.22 72.43 110.22 73.31C110.22 74.01 110.4 74.58 110.76 75.02C111.14 75.44 111.63 75.8 112.23 76.1C112.83 76.4 113.49 76.68 114.21 76.94C114.95 77.18 115.68 77.45 116.4 77.75C117.12 78.05 117.78 78.43 118.38 78.89C118.98 79.35 119.46 79.95 119.82 80.69C120.2 81.41 120.39 82.32 120.39 83.42C120.39 85.26 119.75 86.7 118.47 87.74C117.21 88.78 115.5 89.3 113.34 89.3ZM133.79 89V80.69C133.79 79.61 133.45 78.72 132.77 78.02C132.09 77.32 131.21 76.97 130.13 76.97C129.41 76.97 128.77 77.13 128.21 77.45C127.65 77.77 127.21 78.21 126.89 78.77C126.57 79.33 126.41 79.97 126.41 80.69L125.3 80.06C125.3 78.98 125.54 78.02 126.02 77.18C126.5 76.34 127.17 75.68 128.03 75.2C128.89 74.7 129.86 74.45 130.94 74.45C132.02 74.45 132.97 74.69 133.79 75.17C134.63 75.65 135.29 76.32 135.77 77.18C136.25 78.04 136.49 79.03 136.49 80.15V89H133.79ZM123.71 89V67.58H126.41V89H123.71ZM146.656 89.3C145.256 89.3 143.996 88.97 142.876 88.31C141.756 87.65 140.866 86.76 140.206 85.64C139.546 84.5 139.216 83.23 139.216 81.83C139.216 80.45 139.546 79.21 140.206 78.11C140.866 76.99 141.756 76.1 142.876 75.44C143.996 74.78 145.256 74.45 146.656 74.45C148.036 74.45 149.286 74.78 150.406 75.44C151.546 76.08 152.446 76.96 153.106 78.08C153.766 79.2 154.096 80.45 154.096 81.83C154.096 83.23 153.766 84.5 153.106 85.64C152.446 86.76 151.546 87.65 150.406 88.31C149.286 88.97 148.036 89.3 146.656 89.3ZM146.656 86.69C147.556 86.69 148.356 86.48 149.056 86.06C149.756 85.64 150.306 85.07 150.706 84.35C151.106 83.61 151.306 82.77 151.306 81.83C151.306 80.91 151.096 80.09 150.676 79.37C150.276 78.65 149.726 78.09 149.026 77.69C148.346 77.27 147.556 77.06 146.656 77.06C145.756 77.06 144.956 77.27 144.256 77.69C143.556 78.09 143.006 78.65 142.606 79.37C142.206 80.09 142.006 80.91 142.006 81.83C142.006 82.77 142.206 83.61 142.606 84.35C143.006 85.07 143.556 85.64 144.256 86.06C144.956 86.48 145.756 86.69 146.656 86.69ZM164.638 89.3C163.558 89.3 162.578 89.08 161.698 88.64C160.838 88.18 160.148 87.55 159.628 86.75C159.108 85.95 158.818 85.04 158.758 84.02V79.73C158.818 78.69 159.108 77.78 159.628 77C160.168 76.2 160.868 75.58 161.728 75.14C162.608 74.68 163.578 74.45 164.638 74.45C165.938 74.45 167.108 74.78 168.148 75.44C169.208 76.1 170.038 76.99 170.638 78.11C171.238 79.23 171.538 80.49 171.538 81.89C171.538 83.29 171.238 84.55 170.638 85.67C170.038 86.79 169.208 87.68 168.148 88.34C167.108 88.98 165.938 89.3 164.638 89.3ZM164.188 86.75C165.088 86.75 165.878 86.54 166.558 86.12C167.238 85.7 167.778 85.13 168.178 84.41C168.578 83.67 168.778 82.82 168.778 81.86C168.778 80.92 168.578 80.08 168.178 79.34C167.778 78.6 167.238 78.03 166.558 77.63C165.878 77.21 165.098 77 164.218 77C163.318 77 162.528 77.21 161.848 77.63C161.168 78.03 160.638 78.6 160.258 79.34C159.878 80.08 159.688 80.93 159.688 81.89C159.688 82.83 159.868 83.67 160.228 84.41C160.608 85.13 161.138 85.7 161.818 86.12C162.518 86.54 163.308 86.75 164.188 86.75ZM157.138 94.97V74.75H159.838V78.5L159.328 81.95L159.838 85.43V94.97H157.138Z" fill="#FF6EAB"/>
</svg>
